<?xml version="1.0" standalone="no"?><svg xmlns="http://www.w3.org/2000/svg" viewBox="0 0 1440 320"><path fill="#0099ff" fill-opacity="1" d="M0,96L26.7,117.3C53.3,139,107,181,160,202.7C213.3,224,267,224,320,234.7C373.3,245,427,267,480,250.7C533.3,235,587,181,640,138.7C693.3,96,747,64,800,90.7C853.3,117,907,203,960,197.3C1013.3,192,1067,96,1120,96C1173.3,96,1227,192,1280,224C1333.3,256,1387,224,1413,208L1440,192L1440,320L1413.3,320C1386.7,320,1333,320,1280,320C1226.7,320,1173,320,1120,320C1066.7,320,1013,320,960,320C906.7,320,853,320,800,320C746.7,320,693,320,640,320C586.7,320,533,320,480,320C426.7,320,373,320,320,320C266.7,320,213,320,160,320C106.7,320,53,320,27,320L0,320Z"></path></svg>